#N canvas 108 51 550 459 10;
#X obj 61 12 cnv 15 400 40 empty empty f0_auto_scale 60 20 0 20 -233017
-66577 0;
#X floatatom 151 157 5 0 0 0 - - -;
#X floatatom 151 288 5 0 0 0 - - -;
#X floatatom 265 208 5 0 0 0 - - -;
#X obj 154 136 hsl 128 15 0 127 0 0 empty empty empty -2 -6 0 8 -262144
-1 -1 0 1;
#X obj 154 307 hsl 128 15 0 1 0 0 empty empty empty -2 -6 0 8 -262144
-1 -1 0 1;
#X text 276 238 optional arguments:;
#X text 192 160 number to auto-scale;
#X floatatom 208 188 5 0 0 0 - - -;
#X text 248 187 set low output value;
#X text 306 207 set high output value;
#X msg 382 146 set 60 80;
#X text 348 128 set low&high input values;
#X msg 33 157 factor;
#X msg 33 179 range;
#X obj 356 392 print;
#X obj 356 316 route 0 1;
#X msg 385 363 range \$1 : \$2;
#X msg 356 338 factor \$1 : \$2;
#X obj 33 136 bng 15 250 50 0 empty empty empty 0 -6 0 8 -262144 -1
-1;
#X text 25 119 reset;
#X text 99 57 finds minimum and maximum values of a stream;
#X text 99 76 of numbers and uses them as input scaling range;
#X text 99 95 i.e. auto normalise values to a fixed range;
#X obj 151 239 f0_auto_scale 0 1;
#X text 287 257 1 low output value;
#X text 287 276 2 high output value;
#N canvas 25 49 420 300 META 0;
#X text 13 41 NAME f0extpd_osx;
#X text 10 25 AUTHOR f@fredrikolofsson.com;
#X text 10 10 VERSION 2;
#X text 12 57 DESCRIPTION finds minimum and maximum values and uses
them as input scaling range;
#X restore 7 20 pd META;
#X connect 1 0 24 0;
#X connect 2 0 5 0;
#X connect 3 0 24 2;
#X connect 4 0 1 0;
#X connect 8 0 24 1;
#X connect 11 0 24 0;
#X connect 13 0 24 0;
#X connect 14 0 24 0;
#X connect 16 0 18 0;
#X connect 16 1 17 0;
#X connect 17 0 15 0;
#X connect 18 0 15 0;
#X connect 19 0 24 0;
#X connect 24 0 2 0;
#X connect 24 1 16 0;
