#N canvas 91 22 488 349 10;
#X obj 31 12 cnv 15 400 40 empty empty f0_frames_to_beats 30 20 0 20
-233017 -66577 0;
#X floatatom 58 129 5 0 0 0 - - -;
#X floatatom 58 258 5 0 0 0 - - -;
#X floatatom 228 180 5 0 0 0 - - -;
#X text 243 222 optional arguments:;
#X floatatom 143 160 5 0 0 0 - - -;
#X text 254 242 1 tempo (bpm) default 120;
#X text 254 256 2 fps default 20;
#X text 269 179 frames per second;
#X obj 58 223 f0_frames_to_beats 130 25;
#X text 48 59 calculates how many beats will fit in x [video]frames
;
#X text 286 109 x= (frames/fps)/(60/bpm);
#X text 99 132 frames;
#X text 183 159 tempo bpm;
#X text 41 276 number of beats;
#X text 41 290 per x frames;
#N canvas 25 49 420 300 META 0;
#X text 13 41 NAME f0extpd_osx;
#X text 10 25 AUTHOR f@fredrikolofsson.com;
#X text 10 10 VERSION 2;
#X text 12 58 DESCRIPTION calculates how many beats will fit in x [video]frames
;
#X restore -21 24 pd META;
#X connect 1 0 9 0;
#X connect 3 0 9 2;
#X connect 5 0 9 1;
#X connect 9 0 2 0;
