#N canvas 267 50 514 491 10;
#X obj 21 12 cnv 15 400 40 empty empty f0_range 90 20 0 20 -233017
-66577 0;
#X floatatom 141 181 5 0 0 0 - - -;
#X floatatom 72 292 5 0 0 0 - - -;
#X text 250 224 optional argument:;
#X text 43 59 finds minimum \, middle and maximum values of a;
#X text 43 74 steam of numbers and remembers until reset;
#X obj 58 176 bng 15 250 50 0 empty empty empty 0 -6 0 8 -262144 -1
-1;
#X text 48 157 reset;
#X text 261 241 1 anticipated minimum;
#X text 261 256 2 anticipated maximum;
#X text 79 308 min;
#X obj 72 330 vsl 15 128 0 127 0 0 empty empty empty 0 -8 0 8 -262144
-1 -1 0 1;
#X floatatom 164 292 5 0 0 0 - - -;
#X obj 164 330 vsl 15 128 0 127 0 0 empty empty empty 0 -8 0 8 -262144
-1 -1 0 1;
#X floatatom 249 292 5 0 0 0 - - -;
#X obj 249 330 vsl 15 128 0 127 0 0 empty empty empty 0 -8 0 8 -262144
-1 -1 0 1;
#X text 171 308 middle;
#X text 256 308 max;
#X obj 144 164 hsl 128 15 0 127 0 0 empty empty empty -2 -6 0 8 -262144
-1 -1 0 1;
#X msg 13 232 set 50 90;
#X text 8 215 anticipate;
#X obj 141 225 f0_range 65 70;
#N canvas 25 49 420 300 META 0;
#X text 13 41 NAME f0extpd_osx;
#X text 10 25 AUTHOR f@fredrikolofsson.com;
#X text 10 10 VERSION 2;
#X text 11 56 DESCRIPTION finds minimum \, middle and maximum values
from a stream of values;
#X restore -34 25 pd META;
#X connect 1 0 21 0;
#X connect 2 0 11 0;
#X connect 6 0 21 0;
#X connect 12 0 13 0;
#X connect 14 0 15 0;
#X connect 18 0 1 0;
#X connect 19 0 21 0;
#X connect 21 0 2 0;
#X connect 21 1 12 0;
#X connect 21 2 14 0;
