#N canvas 301 42 552 504 10;
#X obj 52 12 cnv 15 400 40 empty empty f0_range2 85 20 0 20 -233017
-66577 0;
#X floatatom 154 181 5 0 0 0 - - -;
#X floatatom 85 292 5 0 0 0 - - -;
#X text 298 224 optional argument:;
#X text 91 59 finds minimum \, middle and maximum values of a;
#X text 91 74 steam of numbers and remembers until reset;
#X obj 71 176 bng 15 250 50 0 empty empty empty 0 -6 0 8 -262144 -1
-1;
#X text 61 157 reset;
#X text 309 242 1 anticipated minimum;
#X text 309 257 2 anticipated maximum;
#X text 92 308 min;
#X obj 85 330 vsl 15 128 0 127 0 0 empty empty empty 0 -8 0 8 -262144
-1 -1 0 1;
#X floatatom 177 292 5 0 0 0 - - -;
#X obj 177 330 vsl 15 128 0 127 0 0 empty empty empty 0 -8 0 8 -262144
-1 -1 0 1;
#X floatatom 262 292 5 0 0 0 - - -;
#X obj 262 330 vsl 15 128 0 127 0 0 empty empty empty 0 -8 0 8 -262144
-1 -1 0 1;
#X text 184 308 middle;
#X text 269 308 max;
#X obj 157 164 hsl 128 15 0 127 0 0 empty empty empty -2 -6 0 8 -262144
-1 -1 0 1;
#X text 21 215 anticipate;
#X floatatom 348 158 5 0 0 0 - - -;
#X text 318 143 fallback/smooth;
#X msg 26 232 set 20 40;
#X obj 154 225 f0_range2 40 60 0.3;
#X text 91 89 this version with a smooth/fallback value;
#X text 309 272 3 smooth factor (default= 0);
#N canvas 25 49 420 300 META 0;
#X text 13 41 NAME f0extpd_osx;
#X text 10 25 AUTHOR f@fredrikolofsson.com;
#X text 10 10 VERSION 2;
#X text 11 56 DESCRIPTION similar to f0_range but with an added smooth
factor;
#X restore 2 24 pd META;
#X connect 1 0 23 0;
#X connect 2 0 11 0;
#X connect 6 0 23 0;
#X connect 12 0 13 0;
#X connect 14 0 15 0;
#X connect 18 0 1 0;
#X connect 20 0 23 1;
#X connect 22 0 23 0;
#X connect 23 0 2 0;
#X connect 23 1 12 0;
#X connect 23 2 14 0;
