#N canvas 90 22 571 329 10;
#X obj 60 12 cnv 15 400 40 empty empty f0_tune 100 20 0 20 -233017
-66577 0;
#X floatatom 67 142 5 0 0 0 - - -;
#X floatatom 67 243 5 0 0 0 - - -;
#X floatatom 139 142 5 0 0 0 - - -;
#X text 164 228 optional argument:;
#X text 175 244 base frequency (default= 440);
#X obj 67 225 f0_tune 440;
#X text 53 123 frequency;
#X msg 232 96 tonesPerOctave 12;
#X text 140 59 frequency quantiser;
#X text 363 96 chromatic scale;
#X msg 232 114 tonesPerOctave 24;
#X msg 232 132 tonesPerOctave 48;
#X msg 232 150 tonesPerOctave 18;
#X msg 232 168 tonesPerOctave 10.4;
#X text 363 150 eighteen tones per octave;
#X text 132 123 base freq;
#X text 363 133 eight-tone;
#X text 363 115 quater-tone;
#X text 375 167 weird scale;
#N canvas 25 49 420 300 META 0;
#X text 13 41 NAME f0extpd_osx;
#X text 10 25 AUTHOR f@fredrikolofsson.com;
#X text 10 10 VERSION 2;
#X text 12 57 DESCRIPTION frequency quantiser;
#X restore 7 23 pd META;
#X connect 1 0 6 0;
#X connect 3 0 6 1;
#X connect 6 0 2 0;
#X connect 8 0 6 0;
#X connect 11 0 6 0;
#X connect 12 0 6 0;
#X connect 13 0 6 0;
#X connect 14 0 6 0;
