#N canvas 91 38 510 361 10;
#X obj 54 12 cnv 15 400 40 empty empty f0_smooth2 80 20 0 20 #e0e0e0 #404040 0;
#X floatatom 103 145 5 0 0 0 - - - 0;
#X floatatom 103 282 5 0 0 0 - - - 0;
#X floatatom 250 166 5 0 0 0 - - - 0;
#X text 81 127 numbers to smooth;
#X text 225 149 smoothing constant alpha;
#X obj 106 105 hsl 128 15 0 127 0 0 empty empty empty -2 -6 0 8 #fcfcfc #000000 #000000 0 1;
#X obj 11 156 metro 30;
#X obj 11 121 loadbang;
#X obj 11 139 tgl 15 0 empty empty empty 0 -6 0 8 #fcfcfc #000000 #000000 0 1;
#X obj 106 333 hsl 128 15 0 127 0 0 empty empty empty -2 -6 0 8 #fcfcfc #000000 #000000 0 1;
#X msg 10 282 set 10;
#X floatatom 250 200 5 0 0 0 - - - 0;
#X text 225 183 smoothing constant gamma;
#X text 228 238 optional arguments:;
#X text 239 271 2 smoothing constant gamma (default 0.3);
#X text 239 256 1 smoothing constant alpha (default 0.15);
#X obj 103 239 f0_smooth2 0.15 0.3;
#X floatatom 182 282 5 0 0 0 - - - 0;
#X text 176 296 trend;
#X text 136 57 Double exponential smoothing (DES).;
#X connect 1 0 17 0;
#X connect 2 0 10 0;
#X connect 3 0 17 1;
#X connect 6 0 1 0;
#X connect 7 0 1 0;
#X connect 8 0 9 0;
#X connect 9 0 7 0;
#X connect 11 0 17 0;
#X connect 12 0 17 2;
#X connect 17 0 2 0;
#X connect 17 1 18 0;
