#N canvas 96 38 449 442 10;
#X obj 26 12 cnv 15 400 40 empty empty f0_slub~ 85 20 0 20 #e0e0e0 #404040 0;
#X floatatom 183 180 5 0 0 0 - - - 0;
#X text 206 210 optional argument:;
#X obj 125 180 bng 15 250 50 0 empty empty empty 0 -6 0 8 #fcfcfc #000000 #000000;
#X text 111 159 hit me;
#X text 82 396 in honour of uk laptopduo slub;
#X text 82 412 (www.slub.org);
#X obj 92 275 osc~ 400;
#X obj 106 297 osc~ 404;
#X obj 92 331 *~ 0.1;
#X obj 82 362 dac~;
#X msg 7 308 \; pd dsp \$1;
#X obj 7 290 tgl 15 0 empty empty empty 0 -6 0 8 #fcfcfc #000000 #000000 0 1;
#X text 161 334 aural feedback of the spike;
#X text 217 230 spike amount (default 7);
#X obj 125 211 f0_slub~ 7;
#X text 30 59 Generate CPU spikes. Take control over those lovely;
#X text 30 75 CPU hickups and add some excitement to your live set.;
#X text 28 105 Careful with the amount! Need to trim for your particular CPU;
#X connect 1 0 15 1;
#X connect 3 0 15 0;
#X connect 7 0 9 0;
#X connect 8 0 9 0;
#X connect 9 0 10 0;
#X connect 9 0 10 1;
#X connect 12 0 11 0;
