#N canvas 577 58 555 750 10;
#X obj 56 11 cnv 15 400 40 empty empty f0_construct 60 20 0 20 -233017
-66577 0;
#X floatatom 41 153 5 0 0 0 - - -;
#X text 101 57 a constructive constructor;
#X text 81 152 number of iterations;
#X floatatom 265 107 5 1 16 0 - - -;
#X msg 304 107 mapping \$1;
#X floatatom 265 129 5 1 6 0 - - -;
#X msg 304 129 variant \$1;
#X floatatom 265 151 5 0 0 0 - - -;
#X floatatom 265 173 5 0 0 0 - - -;
#X floatatom 265 195 5 0 0 0 - - -;
#X floatatom 265 217 5 0 0 0 - - -;
#X floatatom 265 239 5 0 0 0 - - -;
#X floatatom 265 261 5 0 0 0 - - -;
#X msg 304 151 cols \$1;
#X msg 304 173 rows \$1;
#X msg 304 195 width \$1;
#X msg 304 217 height \$1;
#X msg 304 239 stepX \$1;
#X msg 304 261 stepY \$1;
#X floatatom 265 283 5 0 100 0 - - -;
#X floatatom 265 305 5 0 100 0 - - -;
#X msg 304 283 movementX \$1;
#X msg 304 305 movementY \$1;
#X text 403 152 (default= 3);
#X text 403 175 (default= 2);
#X text 404 240 (default= 1);
#X text 404 261 (default= 1);
#X text 404 217 (default= 200);
#X text 404 197 (default= 200);
#X text 405 283 0-100% (default= 95);
#X text 405 305 0-100% (default= 93);
#X text 404 107 1-16 (default= 1);
#X text 404 129 1-6 (default= 1);
#X text 34 282 outputs [x \, y \, x+1 \, y+1];
#X text 102 72 made for plotting 2d generative graphics;
#X obj 23 119 bng 15 250 50 0 empty empty empty 0 -6 0 8 -262144 -1
-1;
#X text 15 102 output;
#N canvas 25 49 420 300 META 0;
#X text 13 41 NAME f0extpd;
#X text 10 25 AUTHOR f@fredrikolofsson.com;
#X text 10 10 VERSION 2;
#X text 12 57 DESCRIPTION a constructive constructor;
#X restore 5 24 pd META;
#X obj 37 670 gemwin;
#X msg 37 602 create \, 1;
#X msg 51 639 0 \, destroy;
#X text 110 600 <- 1 open window;
#X obj 287 422 gemhead;
#X obj 321 468 GEMglBegin;
#X obj 378 426 loadbang;
#X obj 287 716 GEMglEnd;
#X text 81 171 (default= 2000);
#X obj 304 491 repeat 2000;
#X obj 287 445 t a a a b;
#X obj 331 534 f;
#X msg 346 515 0;
#X obj 355 534 + 1;
#X obj 304 510 t a b;
#X obj 304 693 GEMglVertex2f;
#X msg 120 450 clear;
#X msg 56 410 0;
#X obj 41 432 f;
#X obj 68 432 + 1;
#X obj 41 477 coll /tmp/f0_construct;
#C restore;
#X obj 41 453 pack f f f;
#X obj 41 384 t b f;
#X obj 41 361 unpack f f f f;
#X obj 120 411 r f0_construct_draw;
#X obj 41 179 t f b;
#X obj 68 202 s f0_construct_draw;
#X floatatom 41 498 5 0 0 0 - - -;
#X obj 41 518 s f0_construct_num;
#X obj 400 467 r f0_construct_num;
#X obj 341 558 coll /tmp/f0_construct;
#C restore;
#X obj 341 577 unpack f f;
#X obj 41 254 f0_construct;
#X obj 111 98 loadbang;
#X msg 111 117 2000;
#X obj 379 605 / 200;
#X obj 341 628 - 0.5;
#X obj 379 627 - 0.5;
#X obj 341 605 / 200;
#X obj 379 652 * 7;
#X obj 341 652 * 7;
#X obj 378 445 GLdefine GL_POINTS;
#X connect 1 0 64 0;
#X connect 4 0 5 0;
#X connect 5 0 71 0;
#X connect 6 0 7 0;
#X connect 7 0 71 0;
#X connect 8 0 14 0;
#X connect 9 0 15 0;
#X connect 10 0 16 0;
#X connect 11 0 17 0;
#X connect 12 0 18 0;
#X connect 13 0 19 0;
#X connect 14 0 71 0;
#X connect 15 0 71 0;
#X connect 16 0 71 0;
#X connect 17 0 71 0;
#X connect 18 0 71 0;
#X connect 19 0 71 0;
#X connect 20 0 22 0;
#X connect 21 0 23 0;
#X connect 22 0 71 0;
#X connect 23 0 71 0;
#X connect 36 0 1 0;
#X connect 40 0 39 0;
#X connect 41 0 39 0;
#X connect 43 0 49 0;
#X connect 45 0 80 0;
#X connect 48 0 53 0;
#X connect 49 0 46 0;
#X connect 49 1 48 0;
#X connect 49 2 44 0;
#X connect 49 3 51 0;
#X connect 50 0 52 0;
#X connect 50 0 69 0;
#X connect 51 0 50 1;
#X connect 52 0 50 1;
#X connect 53 0 54 0;
#X connect 53 1 50 0;
#X connect 55 0 59 0;
#X connect 56 0 57 1;
#X connect 57 0 58 0;
#X connect 57 0 60 0;
#X connect 58 0 57 1;
#X connect 59 0 66 0;
#X connect 60 0 59 0;
#X connect 61 0 57 0;
#X connect 61 1 60 1;
#X connect 62 0 61 0;
#X connect 62 1 60 2;
#X connect 63 0 55 0;
#X connect 63 0 56 0;
#X connect 64 0 71 0;
#X connect 64 1 65 0;
#X connect 66 0 67 0;
#X connect 68 0 48 1;
#X connect 69 0 70 0;
#X connect 70 0 77 0;
#X connect 70 1 74 0;
#X connect 71 0 62 0;
#X connect 72 0 73 0;
#X connect 73 0 1 0;
#X connect 74 0 76 0;
#X connect 75 0 79 0;
#X connect 76 0 78 0;
#X connect 77 0 75 0;
#X connect 78 0 54 2;
#X connect 79 0 54 1;
#X connect 80 0 44 1;
