#N canvas 95 23 482 300 10;
#X obj 57 12 cnv 15 400 40 empty empty f0_distance 75 20 0 20 -233017
-66577 0;
#X floatatom 42 149 5 0 0 0 - - -;
#X floatatom 42 198 5 0 0 0 - - -;
#X floatatom 178 149 5 0 0 0 - - -;
#X floatatom 178 198 5 0 0 0 - - -;
#X floatatom 234 149 5 0 0 0 - - -;
#X text 222 229 optional argument:;
#X obj 42 172 f0_distance;
#X text 61 58 calculate delta distance in 1 \, 2 or 3 dimensions;
#X text 233 245 dimensions (1 - 3);
#X msg 95 121 -23;
#X msg 95 143 1.4;
#X obj 178 172 f0_distance 2;
#X text 179 131 x;
#X text 234 131 y;
#X floatatom 337 138 5 0 0 0 - - -;
#X floatatom 321 197 5 0 0 0 - - -;
#X floatatom 376 138 5 0 0 0 - - -;
#X text 338 120 x;
#X text 376 120 y;
#X obj 321 171 f0_distance 3;
#X floatatom 415 138 5 0 0 0 - - -;
#X text 415 120 z;
#X obj 321 138 bng 15 250 50 0 empty empty empty 0 -6 0 8 -262144 -1
-1;
#N canvas 25 49 420 300 META 0;
#X text 13 41 NAME f0extpd_osx;
#X text 10 25 AUTHOR f@fredrikolofsson.com;
#X text 10 10 VERSION 2;
#X text 11 58 DESCRIPTION calculate delta distance in 1 \, 2 or 3 dimensions
;
#X restore 5 25 pd META;
#X msg 363 84 1 2 3;
#X msg 410 84 10 20 30;
#X connect 1 0 7 0;
#X connect 3 0 12 0;
#X connect 5 0 12 1;
#X connect 7 0 2 0;
#X connect 10 0 7 0;
#X connect 11 0 7 0;
#X connect 12 0 4 0;
#X connect 15 0 20 0;
#X connect 17 0 20 1;
#X connect 20 0 16 0;
#X connect 21 0 20 2;
#X connect 23 0 20 0;
#X connect 25 0 20 0;
#X connect 26 0 20 0;
