#N canvas 154 22 475 359 10;
#X obj 58 12 cnv 15 400 40 empty empty f0_fold 90 20 0 20 -233017 -66577
0;
#X floatatom 124 139 5 0 0 0 - - -;
#X floatatom 124 270 5 0 0 0 - - -;
#X floatatom 210 189 5 0 0 0 - - -;
#X obj 127 118 hsl 128 15 0 127 0 0 empty empty empty -2 -6 0 8 -262144
-1 -1 0 1;
#X text 249 220 optional arguments:;
#X floatatom 167 162 5 0 0 0 - - -;
#X text 260 239 1 min;
#X text 260 258 2 max;
#X obj 127 289 hsl 128 15 0 127 0 0 empty empty empty -2 -6 0 8 -262144
-1 -1 0 1;
#X text 165 142 number to fold;
#X text 211 162 min;
#X text 255 188 max;
#X obj 124 221 f0_fold 40 90;
#N canvas 25 49 420 300 META 0;
#X text 13 41 NAME f0extpd;
#X text 10 25 AUTHOR f@fredrikolofsson.com;
#X text 10 10 VERSION 2;
#X text 12 57 DESCRIPTION fold values;
#X restore 5 23 pd META;
#X text 148 57 fold values;
#X connect 1 0 13 0;
#X connect 2 0 9 0;
#X connect 3 0 13 2;
#X connect 4 0 1 0;
#X connect 6 0 13 1;
#X connect 13 0 2 0;
