#N canvas 87 22 489 270 10;
#X obj 48 12 cnv 15 400 40 empty empty f0_gcd 110 20 0 20 -233017 -66577
0;
#X floatatom 129 132 5 0 0 0 - - -;
#X floatatom 129 198 5 0 0 0 - - -;
#X obj 129 164 f0_gcd;
#X text 129 56 greatest common divisor;
#X floatatom 168 132 5 0 0 0 - - -;
#X text 195 163 floats are truncated!;
#X text 129 218 gcd;
#X msg 105 101 88 136 -16 56.35;
#N canvas 25 49 420 300 META 0;
#X text 13 41 NAME f0extpd;
#X text 10 25 AUTHOR f@fredrikolofsson.com;
#X text 10 10 VERSION 2;
#X text 11 57 DESCRIPTION greatest common divisor;
#X restore -5 23 pd META;
#X connect 1 0 3 0;
#X connect 3 0 2 0;
#X connect 5 0 3 1;
#X connect 8 0 3 0;
