#N canvas 99 22 474 387 10;
#X obj 38 12 cnv 15 400 40 empty empty f0_inc_dec_split 50 20 0 20
-233017 -66577 0;
#X floatatom 144 155 5 0 0 0 - - -;
#X floatatom 144 288 5 0 0 0 - - -;
#X obj 147 136 hsl 128 15 0 127 0 0 empty empty empty -2 -6 0 8 -262144
-1 -1 0 1;
#X floatatom 265 192 5 0 0 0 - - -;
#X obj 144 239 f0_inc_dec_split 5;
#X text 284 238 optional argument:;
#X text 295 257 start value;
#X obj 144 305 bng 15 250 50 0 empty empty empty 0 -6 0 8 -262144 -1
-1;
#X floatatom 265 288 5 0 0 0 - - -;
#X obj 265 305 bng 15 250 50 0 empty empty empty 0 -6 0 8 -262144 -1
-1;
#X text 90 57 detect direction of incoming values;
#X text 90 74 and split to different outlets;
#X text 305 191 init reset value;
#X msg 92 204 reset;
#X text 76 330 increasing values;
#X text 231 330 decreasing values;
#X obj 92 185 bng 15 250 50 0 empty empty empty 0 -6 0 8 -262144 -1
-1;
#N canvas 25 49 420 300 META 0;
#X text 13 41 NAME f0extpd;
#X text 10 25 AUTHOR f@fredrikolofsson.com;
#X text 10 10 VERSION 2;
#X text 12 58 DESCRIPTION detect direction of incoming values and split
to different outlets;
#X restore -13 24 pd META;
#X connect 1 0 5 0;
#X connect 2 0 8 0;
#X connect 3 0 1 0;
#X connect 4 0 5 1;
#X connect 5 0 2 0;
#X connect 5 1 9 0;
#X connect 9 0 10 0;
#X connect 14 0 5 0;
#X connect 17 0 5 0;
