#N canvas 195 51 480 308 10;
#X obj 26 12 cnv 15 400 40 empty empty f0_noergaard 75 20 0 20 -233017
-66577 0;
#X floatatom 146 182 5 0 0 0 - - -;
#X floatatom 146 231 5 0 0 0 - - -;
#X obj 146 200 f0_noergaard;
#X text 102 59 Per Noergaard's infinity series;
#X text 80 95 v[i*2]= v[i*2-2]-(v[i]-v[i-1]);
#X text 80 113 v[i*2+1]= v[i*2-1]+(v[i]-v[i-1]);
#X text 146 163 index (>= 0);
#N canvas 25 49 420 300 META 0;
#X text 13 41 NAME f0extpd;
#X text 10 25 AUTHOR f@fredrikolofsson.com;
#X text 10 10 VERSION 2;
#X text 11 56 DESCRIPTION per nørgård's infinity series;
#X restore -26 24 pd META;
#X connect 1 0 3 0;
#X connect 3 0 2 0;
