#N canvas 108 51 524 364 10;
#X obj 43 163 f0_round;
#X text 68 57 round floats to nearest quantise value;
#X obj 20 12 cnv 15 400 40 empty empty f0_round 80 20 0 20 -233017
-66577 0;
#X floatatom 43 140 5 0 0 0 - - -;
#X msg 96 108 6.49;
#X floatatom 43 189 5 0 0 0 - - -;
#X msg 96 134 6.5;
#X floatatom 185 140 5 0 0 0 - - -;
#X floatatom 185 189 5 0 0 0 - - -;
#X obj 185 163 f0_round 0.125;
#X floatatom 278 140 5 0 0 0 - - -;
#X text 293 162 optional argument:;
#X text 304 180 quantise value (default 1);
#X floatatom 75 262 5 0 0 0 - - -;
#X floatatom 75 311 5 0 0 0 - - -;
#X floatatom 147 262 5 0 0 0 - - -;
#X obj 75 285 f0_round 30;
#N canvas 25 49 420 300 META 0;
#X text 13 41 NAME f0extpd;
#X text 10 25 AUTHOR f@fredrikolofsson.com;
#X text 10 10 VERSION 2;
#X text 12 57 DESCRIPTION round to nearest quantise value;
#X restore -31 25 pd META;
#X connect 0 0 5 0;
#X connect 3 0 0 0;
#X connect 4 0 0 0;
#X connect 6 0 0 0;
#X connect 7 0 9 0;
#X connect 9 0 8 0;
#X connect 10 0 9 1;
#X connect 13 0 16 0;
#X connect 15 0 16 1;
#X connect 16 0 14 0;
