#N canvas 226 49 519 340 10;
#X obj 33 12 cnv 15 400 40 empty empty f0_ratio 90 20 0 20 -233017
-66577 0;
#X floatatom 183 173 5 0 0 0 - - -;
#X floatatom 183 260 5 0 0 0 - - -;
#X msg 31 111 set 4 3;
#X text 96 110 tv;
#X msg 31 130 set 16 9;
#X text 96 126 widescreen;
#X text 104 57 keep width/height proportion;
#X text 178 278 width;
#X text 183 156 width;
#X floatatom 262 173 5 0 0 0 - - -;
#X floatatom 262 260 5 0 0 0 - - -;
#X text 262 156 height;
#X text 257 278 height;
#X text 322 236 1 width;
#X text 322 252 2 height;
#X text 311 220 optional arguments:;
#X obj 183 221 f0_ratio 4 3;
#N canvas 25 49 420 300 META 0;
#X text 13 41 NAME f0extpd;
#X text 10 25 AUTHOR f@fredrikolofsson.com;
#X text 10 10 VERSION 2;
#X text 12 57 DESCRIPTION keep width/height proportion;
#X restore -19 25 pd META;
#X connect 1 0 17 0;
#X connect 3 0 17 0;
#X connect 5 0 17 0;
#X connect 10 0 17 1;
#X connect 17 0 2 0;
#X connect 17 1 11 0;
