#N canvas 81 22 491 318 10;
#X obj 25 12 cnv 15 400 40 empty empty f0_smooth 80 20 0 20 -233017
-66577 0;
#X floatatom 99 145 5 0 0 0 - - -;
#X floatatom 99 222 5 0 0 0 - - -;
#X floatatom 192 181 5 0 0 0 - - -;
#X text 207 203 optional argument:;
#X text 78 57 single exponential smoothing (ses);
#X text 77 127 numbers to smooth;
#X text 167 164 smoothing constant alpha;
#X text 218 221 smoothing constant (default 0.15);
#X obj 99 204 f0_smooth 0.15;
#X obj 102 105 hsl 128 15 0 127 0 0 empty empty empty -2 -6 0 8 -262144
-1 -1 0 1;
#X obj 7 156 metro 30;
#X obj 7 121 loadbang;
#X obj 7 139 tgl 15 0 empty empty empty 0 -6 0 8 -262144 -1 -1 1 1
;
#X obj 102 254 hsl 128 15 0 127 0 0 empty empty empty -2 -6 0 8 -262144
-1 -1 0 1;
#X msg 6 247 set 10;
#N canvas 25 49 420 300 META 0;
#X text 13 41 NAME f0extpd;
#X text 10 25 AUTHOR f@fredrikolofsson.com;
#X text 10 10 VERSION 2;
#X text 12 57 DESCRIPTION single exponential smoothing (ses). good
for filtering data from sensors;
#X restore -29 26 pd META;
#X connect 1 0 9 0;
#X connect 2 0 14 0;
#X connect 3 0 9 1;
#X connect 9 0 2 0;
#X connect 10 0 1 0;
#X connect 11 0 1 0;
#X connect 12 0 13 0;
#X connect 13 0 11 0;
#X connect 15 0 9 0;
