#N canvas 97 22 512 324 10;
#X obj 24 12 cnv 15 400 40 empty empty f0_snap 100 20 0 20 -233017
-66577 0;
#X floatatom 100 145 5 0 0 0 - - -;
#X floatatom 100 245 5 0 0 0 - - -;
#X floatatom 267 189 5 0 0 0 - - -;
#X text 179 226 optional argument:;
#X text 78 127 numbers to smooth;
#X obj 103 105 hsl 128 15 0 127 0 0 empty empty empty -2 -6 0 8 -262144
-1 -1 0 1;
#X obj 8 156 metro 30;
#X obj 8 121 loadbang;
#X obj 8 139 tgl 15 0 empty empty empty 0 -6 0 8 -262144 -1 -1 1 1
;
#X obj 103 277 hsl 128 15 0 127 0 0 empty empty empty -2 -6 0 8 -262144
-1 -1 0 1;
#X msg 7 270 set 10;
#X text 82 57 smooth input values by snapping;
#X text 257 127 resistance - less is more;
#X text 190 244 resistance (default 50);
#X text 257 142 depends on the values you;
#X text 257 157 intend to smooth. here 1/4;
#X text 257 172 of maximum input;
#X obj 100 227 f0_snap 32;
#N canvas 25 49 420 300 META 0;
#X text 13 41 NAME f0extpd_osx;
#X text 10 25 AUTHOR f@fredrikolofsson.com;
#X text 10 10 VERSION 2;
#X text 12 56 DESCRIPTION smooth input values by snapping;
#X restore -29 25 pd META;
#X connect 1 0 18 0;
#X connect 2 0 10 0;
#X connect 3 0 18 1;
#X connect 6 0 1 0;
#X connect 7 0 1 0;
#X connect 8 0 9 0;
#X connect 9 0 7 0;
#X connect 11 0 18 0;
#X connect 18 0 2 0;
