#N canvas 157 22 495 440 10;
#X obj 36 12 cnv 15 400 40 empty empty f0_slub 90 20 0 20 -233017 -66577
0;
#X floatatom 197 180 5 0 0 0 - - -;
#X text 220 210 optional argument:;
#X obj 139 180 bng 15 250 50 0 empty empty empty 0 -6 0 8 -262144 -1
-1;
#X text 44 59 generate cpu spikes. take control over those lovely;
#X text 44 75 cpu hickups and add some excitement to your live set
;
#X text 42 105 careful with the amount! need to trim for your particular
cpu;
#X text 125 159 hit me;
#X obj 24 314 + 1;
#X obj 24 333 % 127;
#X obj 99 333 hsl 128 15 0 127 0 0 empty empty empty -2 -6 0 8 -262144
-1 -1 5100 1;
#X obj 96 314 metro 50;
#X msg 24 352 set \$1;
#X obj 96 296 tgl 15 0 empty empty empty 0 -6 0 8 -262144 -1 -1 1 1
;
#X obj 96 277 loadbang;
#X text 99 391 in honour of uk laptopduo slub;
#X text 99 407 (www.slub.org);
#X text 233 332 visual feedback of the spike;
#N canvas 25 49 420 300 META 0;
#X text 13 41 NAME f0extpd;
#X text 10 25 AUTHOR f@fredrikolofsson.com;
#X text 10 10 VERSION 2;
#X text 12 57 DESCRIPTION generate cpu spikes;
#X restore -16 24 pd META;
#X obj 139 211 f0_slub 7;
#X text 231 230 spike amount (default 7);
#X connect 1 0 19 1;
#X connect 3 0 19 0;
#X connect 8 0 9 0;
#X connect 9 0 12 0;
#X connect 10 0 8 0;
#X connect 11 0 10 0;
#X connect 12 0 10 0;
#X connect 13 0 11 0;
#X connect 14 0 13 0;
